<svg xmlns="http://www.w3.org/2000/svg" xmlns:xlink="http://www.w3.org/1999/xlink" version="1.1" id="svg-editor-canvas" class="canvas" width="100%" height="100%"><g data-item-type="image" data-item="Image" data-logo-item="" id="logo__item--logo_0" class="logo__item">
    <g class="logo__item__inner" transform="translate(579.8764973364175 215.5) scale(0.9501186271006202 0.9501186271006202) rotate(0 0 0)">
        
<g>
	<filter id="logo__item--logo_0__0_Effect" x="-100%" y="-100%" width="300%" height="300%"><feOffset in="SourceAlpha" dx="0.00" dy="0.00" result="offsetShadow"/><feGaussianBlur in="offsetShadow" stdDeviation="7" result="shadow"/><feMerge><feMergeNode in="shadow"/><feMergeNode in="SourceGraphic"/></feMerge></filter><path fill="#070707" d="M93.7,103.2c8.3-4,16.8-7.7,24.1-13.4c5.9-4.6,10-10.1,11.4-18.2c-1.3-3.3-3-6.4-5-9.3   c0,1.3-0.3,2.8-0.8,4.3C119.8,78,108.9,84.8,97.2,90c-23.2,10.3-39.3,19.5-31.5,45.6c2.8,1.1,5.6,2,8.6,2.6   C70.6,119.2,80,109.9,93.7,103.2z" data-part-id="logo__item--logo_0__0" data-filter-shadow="" data-filter-shadow-distance="0" data-filter-shadow-angle="45" filter="url(#logo__item--logo_0__0_Effect)"/>
	<filter id="logo__item--logo_0__1_Effect" x="-100%" y="-100%" width="300%" height="300%"><feOffset in="SourceAlpha" dx="0.00" dy="0.00" result="offsetShadow"/><feGaussianBlur in="offsetShadow" stdDeviation="7" result="shadow"/><feMerge><feMergeNode in="shadow"/><feMergeNode in="SourceGraphic"/></feMerge></filter><path fill="#f25420" d="M116.6,73.4c5.2-5.3,6-11.7,4-15.8c-1-1.1-2.1-2.2-3.2-3.3c-2.8-1.4-6.9-0.7-11.4,3.5   c2.6-3.9,5.8-5.6,8.9-5.7c-8.5-6.9-19.3-11.1-31.1-11.1c-0.5,0-1,0-1.5,0c-3.8,0.5-14.4,2.3-25.2,8.2c-1.1,0.6-2.1,1.2-3.1,1.9   c-11.7,9-19.2,23-19.2,38.8c0,12.1,4.4,23.2,11.7,31.7c6.7-18.9,25.6-29.8,46.2-36.4C101.2,82.7,111,79.1,116.6,73.4z" data-part-id="logo__item--logo_0__1" data-filter-shadow="" data-filter-shadow-distance="0" data-filter-shadow-angle="45" filter="url(#logo__item--logo_0__1_Effect)"/>
	<filter id="logo__item--logo_0__2_Effect" x="-100%" y="-100%" width="300%" height="300%"><feOffset in="SourceAlpha" dx="0.00" dy="0.00" result="offsetShadow"/><feGaussianBlur in="offsetShadow" stdDeviation="7" result="shadow"/><feMerge><feMergeNode in="shadow"/><feMergeNode in="SourceGraphic"/></feMerge></filter><path fill="#000103" d="M127,110.1c-4.7,4.3-10.1,5.3-13.2,11.5c-1.3,2.6-1.7,5.3-1.3,8.2c7.9-5.7,14.1-13.7,17.4-23.1   C129.1,107.9,128.1,109,127,110.1z" data-part-id="logo__item--logo_0__2" data-filter-shadow="" data-filter-shadow-distance="0" data-filter-shadow-angle="45" filter="url(#logo__item--logo_0__2_Effect)"/>
	<filter id="logo__item--logo_0__3_Effect" x="-100%" y="-100%" width="300%" height="300%"><feOffset in="SourceAlpha" dx="0.00" dy="0.00" result="offsetShadow"/><feGaussianBlur in="offsetShadow" stdDeviation="7" result="shadow"/><feMerge><feMergeNode in="shadow"/><feMergeNode in="SourceGraphic"/></feMerge></filter><path fill="#000102" d="M130.4,74.7c-0.8,8-4.2,14.1-9.6,19.4c-7.2,7.1-17.3,10.5-24,17.9c-6.6,7.3-7.4,16.1-3.2,26   c2.4-0.5,4.7-1.1,6.9-1.9c-1.9-7.6-0.3-14.6,7.6-20.6c4.8-3.6,10.4-4.6,15.2-7.9c5-3.4,8.1-8.6,9.5-15.3c0-0.7,0.1-1.5,0.1-2.2   C132.8,84.7,131.9,79.5,130.4,74.7z" data-part-id="logo__item--logo_0__3" data-filter-shadow="" data-filter-shadow-distance="0" data-filter-shadow-angle="45" filter="url(#logo__item--logo_0__3_Effect)"/>
	<filter id="logo__item--logo_0__4_Effect" x="-100%" y="-100%" width="300%" height="300%"><feOffset in="SourceAlpha" dx="0.00" dy="0.00" result="offsetShadow"/><feGaussianBlur in="offsetShadow" stdDeviation="7" result="shadow"/><feMerge><feMergeNode in="shadow"/><feMergeNode in="SourceGraphic"/></feMerge></filter><path fill="#000205" d="M82.3,41.1c0.9-0.1,1.5-0.2,1.5-0.2L79,32.6l13.2-20.7l-51.6,1.3L10.5,60l3.6-0.2l2.6,14.3   c-0.6,0.6-1,1.6-0.8,2.6c0.2,1,0.8,1.8,1.6,2.2l-2,9.2l3.1-0.4c0,0,0.4,1,1.7,0.7c1.5-0.1,1.5-1.3,1.5-1.3l3.2-0.5l-5.1-7.7   c0.9-0.6,1.3-1.7,1.1-2.9c-0.2-1.1-0.9-1.9-1.8-2.3L19.1,73l-2.1-13.4l17.2-1l5.7,9.7c0,0,4.1-10.2,14.1-17.1c1-0.7,2-1.3,3.1-1.9   C68,43.4,78.5,41.6,82.3,41.1z" data-part-id="logo__item--logo_0__4" data-filter-shadow="" data-filter-shadow-distance="0" data-filter-shadow-angle="45" filter="url(#logo__item--logo_0__4_Effect)"/>
</g>

    </g>
</g></svg>