<?xml version="1.0" standalone="no"?>
<!DOCTYPE svg PUBLIC "-//W3C//DTD SVG 20010904//EN"
 "http://www.w3.org/TR/2001/REC-SVG-20010904/DTD/svg10.dtd">
<svg version="1.0" xmlns="http://www.w3.org/2000/svg"
 width="638.000000pt" height="359.000000pt" viewBox="0 0 638.000000 359.000000"
 preserveAspectRatio="xMidYMid meet">
<metadata>
Created by potrace 1.15, written by Peter Selinger 2001-2017
</metadata>
<g transform="translate(0.000000,359.000000) scale(0.100000,-0.100000)"
fill="#000000" stroke="none">
<path d="M1237 2509 c-83 -20 -163 -77 -239 -173 l-38 -48 43 -47 c57 -60 82
-125 74 -190 -10 -85 -84 -204 -146 -235 -19 -10 -45 -11 -100 -5 -71 8 -112
26 -83 36 10 4 9 8 -4 17 -15 12 -14 14 12 19 30 6 74 59 74 90 0 25 -18 21
-57 -13 -25 -23 -44 -30 -73 -30 -46 0 -50 13 -25 73 22 53 20 57 -30 57 -42
0 -45 -2 -45 -26 0 -19 4 -25 18 -22 9 2 16 12 16 21 -2 14 1 15 12 6 9 -8 11
-16 4 -29 -13 -25 -36 -31 -66 -18 -19 9 -24 18 -21 35 4 19 0 23 -22 23 -58
0 -69 -53 -19 -95 27 -23 38 -26 71 -21 l38 6 -6 -42 c-3 -24 -8 -52 -9 -63
-5 -30 -55 -24 -111 14 -25 17 -55 31 -65 31 -13 0 -25 11 -33 32 -13 31 -13
30 -13 -37 0 -62 -5 -81 -43 -160 -36 -74 -44 -103 -48 -165 -6 -91 19 -175
78 -264 38 -57 49 -83 29 -71 -5 3 -15 -5 -22 -19 -7 -14 -28 -35 -47 -48 -62
-42 -74 -68 -79 -167 l-4 -89 48 -25 c65 -32 180 -60 221 -54 41 7 42 2 3 -18
-33 -17 -87 -19 -145 -4 -22 5 -48 12 -58 14 -41 9 -62 18 -69 28 -11 18 -30
-75 -23 -119 19 -130 177 -169 244 -61 12 19 21 39 21 45 0 8 -41 12 -122 14
-98 2 -122 6 -125 18 -3 11 -2 12 4 3 5 -7 19 -10 32 -6 16 4 19 8 10 14 -22
14 -5 18 34 9 20 -4 66 -7 102 -6 51 1 65 -2 66 -14 0 -9 2 -11 5 -3 9 20 31
4 74 -52 40 -52 56 -106 62 -205 0 -8 5 -20 10 -27 5 -7 7 -20 4 -31 -3 -10 1
-27 9 -38 8 -10 15 -27 15 -36 0 -20 13 -23 40 -8 10 5 38 7 62 4 l44 -6 -29
-29 c-41 -41 -66 -35 -58 14 2 13 -16 7 -32 -11 -26 -28 -21 -40 21 -51 40
-12 193 -15 230 -5 42 12 20 93 -26 95 -15 0 1 8 68 35 17 7 96 100 154 183
21 31 51 70 66 86 31 34 54 76 64 120 l8 30 -21 -26 c-21 -27 -67 -43 -77 -28
-8 14 -52 11 -57 -3 -3 -9 -10 -6 -22 10 -17 23 -45 30 -45 11 0 -5 -4 -7 -10
-4 -5 3 -10 1 -10 -4 0 -6 -4 -11 -8 -11 -5 0 -8 10 -8 21 1 30 -32 50 -45 27
-12 -22 -38 -13 -32 12 6 24 -35 49 -48 29 -11 -18 -45 1 -42 22 4 21 -37 45
-48 28 -6 -10 -10 -10 -23 0 -9 8 -16 18 -16 24 0 6 -12 23 -27 39 -14 15 -25
30 -22 32 2 2 27 0 54 -4 92 -16 245 -11 303 9 66 23 140 73 172 117 14 19 58
74 97 122 40 48 89 117 108 154 35 65 35 69 32 168 -1 58 -7 104 -14 108 -5 4
-10 18 -9 31 1 18 -6 26 -27 33 -48 17 -57 -3 -86 -176 -5 -32 -12 -41 -35
-49 -25 -8 -31 -6 -46 13 l-16 22 -16 -24 c-15 -22 -21 -23 -114 -21 -148 2
-365 36 -347 54 23 23 339 62 468 57 25 0 48 1 51 4 3 4 -4 62 -15 130 l-21
123 40 107 c22 59 40 116 40 127 0 12 7 21 15 21 11 0 73 -24 94 -37 1 -1 -4
-12 -13 -25 -22 -31 -20 -47 10 -91 l26 -38 61 5 c39 4 66 11 73 21 6 8 23 15
37 15 21 0 28 6 33 27 4 15 13 38 20 52 18 35 17 56 -7 121 -11 30 -25 77 -30
104 -29 139 -122 229 -264 255 -68 13 -114 13 -168 0z"/>
<path d="M3105 1300 c-5 -16 -15 -20 -54 -20 -46 0 -49 -1 -55 -31 -8 -40 -1
-49 35 -49 16 0 29 -2 29 -5 0 -3 -21 -55 -46 -116 -26 -60 -44 -112 -42 -114
2 -3 18 -7 34 -11 29 -5 29 -5 78 113 57 135 46 138 107 -30 32 -88 33 -89 62
-83 17 4 32 8 35 10 2 3 -14 54 -37 113 -23 60 -41 112 -41 116 0 4 11 7 24 7
18 0 25 7 30 31 9 49 9 49 -44 49 -36 0 -50 4 -50 14 0 7 -10 16 -22 20 -34 9
-36 8 -43 -14z"/>
<path d="M1819 1280 l-24 -19 32 -1 c21 0 36 -7 42 -19 10 -17 7 -18 -34 -13
-41 4 -44 3 -51 -22 -15 -62 22 -101 90 -94 23 2 31 9 38 33 12 43 1 90 -28
125 -30 35 -34 36 -65 10z"/>
<path d="M2450 1210 c0 -53 -4 -90 -10 -90 -14 0 -12 -54 2 -68 9 -9 10 -15 2
-20 -6 -4 -14 -24 -18 -44 l-7 -38 121 0 120 0 0 40 0 40 -65 0 c-51 0 -65 3
-65 15 0 8 6 15 14 15 12 0 25 28 26 53 0 4 -11 7 -25 7 -25 0 -25 1 -25 90
l0 90 -35 0 -35 0 0 -90z"/>
<path d="M2706 1284 c-12 -32 -6 -54 14 -54 14 0 20 -7 20 -24 0 -15 -7 -26
-20 -29 -27 -7 -28 -57 -1 -57 15 0 19 -10 23 -57 4 -48 10 -61 37 -85 27 -24
40 -28 90 -28 61 0 71 7 71 51 0 16 -7 19 -53 19 -63 0 -77 11 -77 62 l0 38
65 0 65 0 0 30 0 30 -65 0 c-63 0 -65 1 -65 25 0 24 2 25 64 25 58 0 64 2 70
23 12 47 12 47 -113 47 -99 0 -120 -3 -125 -16z"/>
<path d="M3326 1284 c-13 -33 -7 -54 16 -54 20 0 20 -1 5 -18 -11 -12 -17 -36
-17 -68 0 -28 -5 -55 -11 -61 -8 -8 -8 -17 0 -31 6 -11 11 -39 11 -61 0 -40 1
-41 35 -41 35 0 35 0 35 45 0 34 5 47 19 55 27 14 26 15 56 -36 17 -30 39 -51
61 -60 49 -20 54 -18 54 25 0 31 -4 41 -20 46 -11 3 -28 19 -39 34 l-20 27 35
28 35 28 -3 76 -3 77 -121 3 c-104 2 -123 0 -128 -14z"/>
<path d="M3621 1125 l-2 -175 40 0 41 0 0 120 c0 66 2 120 5 120 16 0 64 -32
91 -62 38 -40 50 -81 29 -98 -8 -7 -15 -28 -15 -46 0 -30 3 -34 25 -34 14 0
37 11 50 25 24 23 25 28 25 175 l0 150 -40 0 -40 0 0 -56 0 -56 -36 31 c-20
18 -49 34 -65 38 -20 4 -29 12 -29 24 0 15 -8 19 -39 19 l-39 0 -1 -175z"/>
<path d="M3940 1265 c0 -33 2 -35 33 -35 29 -1 30 -2 15 -14 -15 -11 -18 -29
-18 -105 0 -74 -3 -91 -15 -91 -10 0 -15 -11 -15 -35 l0 -35 64 0 c58 0 64 2
70 23 9 35 7 47 -9 47 -12 0 -15 18 -15 104 0 59 4 106 10 108 5 2 12 18 16
36 l7 32 -72 0 -71 0 0 -35z"/>
<path d="M4116 1284 c-3 -9 -6 -87 -6 -175 l0 -159 40 0 40 0 0 120 c0 66 2
120 5 120 16 0 64 -32 91 -62 38 -40 50 -81 29 -98 -8 -7 -15 -28 -15 -46 0
-30 3 -34 25 -34 14 0 37 11 50 25 24 23 25 28 25 175 l0 150 -40 0 -40 0 0
-56 0 -56 -36 31 c-20 18 -49 34 -65 38 -20 4 -29 12 -29 24 0 15 -7 19 -34
19 -22 0 -36 -6 -40 -16z"/>
<path d="M4440 1274 c-16 -42 -12 -54 18 -55 24 0 25 -1 7 -10 -18 -9 -20 -18
-17 -102 3 -119 6 -131 37 -145 32 -15 141 -16 150 -2 11 18 25 10 25 -15 0
-26 9 -29 48 -19 21 6 22 11 22 120 l0 114 -70 0 -70 0 0 -35 c0 -32 2 -35 30
-35 27 0 30 -3 30 -30 l0 -31 -62 3 -63 3 -3 93 -3 92 91 0 c64 0 92 4 94 13
3 6 7 24 10 40 l6 27 -135 0 -135 0 -10 -26z"/>
<path d="M1933 1073 c-8 -3 -13 -26 -13 -63 0 -77 -19 -101 -87 -107 -38 -4
-53 -10 -60 -25 -8 -19 -9 -19 -32 1 -13 12 -33 21 -44 21 -14 0 -17 4 -12 18
20 47 18 59 -16 71 -52 18 -78 14 -91 -14 -9 -20 -9 -34 1 -61 11 -31 11 -38
-6 -56 -26 -29 -23 -101 5 -131 15 -16 22 -36 22 -64 0 -35 -3 -42 -25 -47
-25 -7 -34 -33 -16 -52 6 -5 13 -28 17 -51 5 -35 4 -43 -9 -43 -9 0 -19 -4
-22 -10 -10 -16 14 -50 35 -50 25 0 53 29 45 48 -3 8 14 -3 37 -24 24 -22 53
-47 66 -55 17 -12 23 -27 24 -62 2 -38 6 -47 24 -51 38 -10 57 3 50 35 -6 34
-5 34 79 14 78 -19 78 -19 72 7 -3 11 1 52 10 90 16 66 16 68 -3 83 -26 20
-36 14 -48 -26 l-10 -34 -4 39 c-2 21 4 56 12 77 24 59 21 67 -26 76 l-43 9
-8 64 c-4 35 -6 69 -3 77 4 8 22 13 52 13 l46 0 -6 44 c-5 32 -3 54 8 75 23
44 34 46 50 8 17 -42 33 -53 40 -30 23 83 12 136 -26 131 -18 -2 -24 3 -27 22
-4 35 -26 47 -58 33z"/>
<path d="M2421 485 l-2 -175 40 0 41 0 0 120 c0 66 2 120 5 120 16 0 64 -32
91 -62 38 -40 50 -81 29 -98 -8 -7 -15 -28 -15 -46 0 -30 3 -34 25 -34 14 0
37 11 50 25 24 23 25 28 25 175 l0 150 -40 0 -40 0 0 -56 0 -56 -36 31 c-20
18 -49 34 -65 38 -20 4 -29 12 -29 24 0 15 -8 19 -39 19 l-39 0 -1 -175z"/>
<path d="M2746 644 c-12 -32 -6 -54 14 -54 14 0 20 -7 20 -24 0 -15 -7 -26
-20 -29 -27 -7 -28 -57 -1 -57 15 0 19 -10 23 -57 4 -48 10 -61 37 -85 27 -24
40 -28 90 -28 61 0 71 7 71 51 0 16 -7 19 -53 19 -63 0 -77 11 -77 62 l0 38
65 0 65 0 0 30 0 30 -65 0 c-63 0 -65 1 -65 25 0 24 2 25 64 25 58 0 64 2 70
23 12 47 12 47 -113 47 -99 0 -120 -3 -125 -16z"/>
<path d="M3038 653 c-10 -2 -18 -10 -18 -16 0 -16 111 -350 119 -359 3 -4 21
0 40 8 28 12 32 18 27 38 -5 20 -3 23 13 19 53 -14 131 179 114 282 l-6 36
-51 -3 c-49 -3 -51 -4 -54 -34 -2 -25 1 -33 18 -37 18 -5 20 -10 14 -49 -8
-52 -29 -100 -54 -123 -19 -17 -20 -17 -28 6 -5 13 -26 72 -46 132 -39 109
-42 112 -88 100z"/>
<path d="M3376 644 c-12 -32 -6 -54 14 -54 14 0 20 -7 20 -24 0 -15 -7 -26
-20 -29 -27 -7 -28 -57 -1 -57 15 0 19 -10 23 -57 4 -48 10 -61 37 -85 27 -24
40 -28 90 -28 61 0 71 7 71 51 0 16 -7 19 -53 19 -63 0 -77 11 -77 62 l0 38
65 0 65 0 0 30 0 30 -65 0 c-63 0 -65 1 -65 25 0 24 2 25 64 25 58 0 64 2 70
23 12 47 12 47 -113 47 -99 0 -120 -3 -125 -16z"/>
<path d="M3656 644 c-13 -33 -7 -54 16 -54 20 0 20 -1 5 -18 -11 -12 -17 -36
-17 -68 0 -28 -5 -55 -11 -61 -8 -8 -8 -17 0 -31 6 -11 11 -39 11 -61 0 -40 1
-41 35 -41 35 0 35 0 35 45 0 34 5 47 19 55 27 14 26 15 56 -36 17 -30 39 -51
61 -60 49 -21 54 -18 54 26 0 22 -5 40 -11 40 -6 0 -24 14 -40 31 l-29 31 36
33 c35 33 35 34 32 107 l-3 73 -121 3 c-104 2 -123 0 -128 -14z"/>
<path d="M4110 641 c0 -11 -3 -26 -6 -35 -4 -12 0 -16 16 -16 19 0 21 -2 10
-16 -12 -13 -2 -26 63 -92 42 -43 77 -81 77 -85 0 -11 -85 -8 -96 3 -14 14
-64 -5 -64 -23 0 -8 10 -27 21 -42 21 -26 24 -27 111 -23 100 3 118 15 118 72
0 25 -16 47 -87 118 l-88 88 46 0 c25 0 50 -5 56 -11 5 -5 22 -7 37 -3 19 4
26 13 26 29 0 46 -23 55 -136 55 -96 0 -104 -1 -104 -19z"/>
<path d="M4390 648 c0 -7 -3 -23 -6 -35 -6 -22 -3 -23 47 -23 48 -1 52 -2 36
-15 -17 -12 -18 -26 -15 -119 3 -94 5 -107 27 -130 33 -36 58 -34 66 5 4 18 3
35 -4 42 -7 7 -11 52 -11 114 l0 103 39 0 c40 0 51 11 51 51 0 18 -8 19 -115
19 -85 0 -115 -3 -115 -12z"/>
<path d="M4680 651 l-25 -7 0 -157 c0 -129 3 -159 15 -167 20 -13 236 -13 261
0 17 10 19 23 19 150 0 76 -4 150 -10 164 -9 25 -12 26 -98 26 -55 0 -92 -4
-100 -12 -9 -9 -12 -9 -12 0 0 13 -12 14 -50 3z m190 -161 l0 -100 -70 0 -70
0 0 100 0 100 70 0 70 0 0 -100z"/>
<path d="M4982 628 c-8 -31 -7 -33 20 -36 28 -3 28 -4 9 -20 -16 -14 -20 -35
-24 -139 -6 -123 -6 -123 17 -123 44 0 60 23 64 95 3 49 7 63 14 52 7 -13 24
-17 71 -17 36 0 68 5 75 12 7 7 12 44 12 94 0 112 -2 114 -140 114 l-109 0 -9
-32z"/>
<path d="M5278 625 c-3 -29 -1 -35 15 -35 16 0 17 -2 7 -16 -12 -13 -2 -26 63
-92 42 -43 77 -81 77 -85 0 -11 -85 -8 -96 3 -14 14 -64 -5 -64 -23 0 -8 9
-26 21 -41 19 -24 26 -26 95 -26 103 0 134 17 134 75 0 24 -16 46 -87 117
l-88 88 46 0 c25 0 50 -5 56 -11 5 -5 22 -7 37 -3 19 4 26 13 26 29 0 46 -23
55 -135 55 l-103 0 -4 -35z"/>
</g>
</svg>
